HIERARCHY
ROOT Hips
{
    OFFSET 0.000000 0.000000 0.000000
    CHANNELS 6 Xposition Yposition Zposition Zrotation Xrotation Yrotation
    JOINT Spine
    {
        OFFSET -0.000000 14.517291 0.000000
        CHANNELS 3 Zrotation Xrotation Yrotation
        JOINT Spine1
        {
            OFFSET -0.000000 37.558300 0.000000
            CHANNELS 3 Zrotation Xrotation Yrotation
            JOINT Neck
            {
                OFFSET -0.000000 37.404057 3.400369
                CHANNELS 3 Zrotation Xrotation Yrotation
                JOINT Head
                {
                    OFFSET -0.000000 24.785618 -3.540803
                    CHANNELS 3 Zrotation Xrotation Yrotation
                    End Site
                    {
                        OFFSET -0.000000 35.408028 0.000000
                    }
                }
            }
            JOINT LeftShoulder
            {
                OFFSET 6.992933 33.973492 -0.192664
                CHANNELS 3 Zrotation Xrotation Yrotation
                JOINT LeftArm
                {
                    OFFSET 21.527611 0.000000 0.000000
                    CHANNELS 3 Zrotation Xrotation Yrotation
                    JOINT LeftForeArm
                    {
                        OFFSET 56.353916 0.000000 0.000000
                        CHANNELS 3 Zrotation Xrotation Yrotation
                        JOINT LeftHand
                        {
                            OFFSET 47.774071 0.000000 0.000000
                            CHANNELS 3 Zrotation Xrotation Yrotation
                            End Site
                            {
                                OFFSET 26.556021 0.000000 0.000000
                            }
                        }
                    }
                }
            }
            JOINT RightShoulder
            {
                OFFSET -7.065357 33.973492 -0.192664
                CHANNELS 3 Zrotation Xrotation Yrotation
                JOINT RightArm
                {
                    OFFSET -21.527611 0.000000 0.000000
                    CHANNELS 3 Zrotation Xrotation Yrotation
                    JOINT RightForeArm
                    {
                        OFFSET -56.353916 0.000000 0.000000
                        CHANNELS 3 Zrotation Xrotation Yrotation
                        JOINT RightHand
                        {
                            OFFSET -47.774071 0.000000 0.000000
                            CHANNELS 3 Zrotation Xrotation Yrotation
                            End Site
                            {
                                OFFSET -26.556021 0.000000 0.000000
                            }
                        }
                    }
                }
            }
        }
    }
    JOINT LeftUpLeg
    {
        OFFSET 17.704014 0.000000 0.000000
        CHANNELS 3 Zrotation Xrotation Yrotation
        JOINT LeftLeg
        {
            OFFSET -0.000000 -81.181816 0.000000
            CHANNELS 3 Zrotation Xrotation Yrotation
            JOINT LeftFoot
            {
                OFFSET -0.000000 -62.821102 0.000000
                CHANNELS 3 Zrotation Xrotation Yrotation
                JOINT LeftToeBase
                {
                    OFFSET -0.000000 -11.507608 26.556021
                    CHANNELS 3 Zrotation Xrotation Yrotation
                    End Site
                    {
                        OFFSET -0.000000 0.000000 7.081605
                    }
                }
            }
        }
    }
    JOINT RightUpLeg
    {
        OFFSET -17.704014 0.000000 0.000000
        CHANNELS 3 Zrotation Xrotation Yrotation
        JOINT RightLeg
        {
            OFFSET -0.000000 -81.181816 0.000000
            CHANNELS 3 Zrotation Xrotation Yrotation
            JOINT RightFoot
            {
                OFFSET -0.000000 -62.821102 0.000000
                CHANNELS 3 Zrotation Xrotation Yrotation
                JOINT RightToeBase
                {
                    OFFSET -0.000000 -11.507608 26.556021
                    CHANNELS 3 Zrotation Xrotation Yrotation
                    End Site
                    {
                        OFFSET -0.000000 0.000000 7.081605
                    }
                }
            }
        }
    }
}
MOTION
Frames:    10
Frame Time:    0.008333
-3.025420    157.377701    -24.575169    0.353860    -2.407583    -33.035965    3.520673    -0.869033    2.157713    -4.315275    5.891674    0.930859    19.697680    1.743406    12.389693    -12.737974    0.857732    8.540435    0.630068    10.016350    -11.683033    -38.057076    5.719604    -40.595070    24.879782    -39.669586    -56.397987    -17.174314    -24.736155    -26.778818    -2.613255    10.874340    -3.933823    34.037193    20.188725    59.290112    3.442686    -17.104008    88.805908    18.355894    -16.515966    24.299263    14.911525    -15.429964    4.100469    -11.066369    15.478337    0.260382    -5.703523    1.510520    34.057278    0.000000    0.000000    0.000000    -11.628141    0.697475    -7.821685    5.807041    28.413610    -1.075677    3.651838    -22.773458    -15.133829    0.000000    0.000000    0.000000    
-3.020732    157.380798    -24.583010    0.341027    -2.406868    -33.052971    3.545843    -0.862958    2.160473    -4.331281    5.882295    0.932210    19.721539    1.741233    12.385760    -12.771574    0.874903    8.530025    0.632476    10.020223    -11.715747    -38.020245    5.761291    -40.611675    24.995113    -39.708244    -56.278286    -17.199352    -24.746176    -26.790966    -2.653983    10.856223    -3.867456    33.990711    20.094543    59.799801    3.140782    -17.412151    88.352982    18.370747    -16.491657    24.442389    14.925492    -15.420870    4.101008    -11.061831    15.479251    0.240307    -5.719419    1.498777    34.082397    0.000000    0.000000    0.000000    -11.618768    0.689446    -7.824385    5.795101    28.424465    -1.036713    3.646305    -22.761452    -15.144858    0.000000    0.000000    0.000000    
-3.017088    157.384155    -24.588680    0.331294    -2.409424    -33.074055    3.561189    -0.853379    2.168627    -4.341469    5.872029    0.935179    19.728657    1.718434    12.384796    -12.774113    0.907119    8.527172    0.642086    10.023613    -11.749407    -37.999420    5.777192    -40.629154    25.043066    -39.727043    -56.213242    -17.163080    -24.775412    -26.744293    -2.694675    10.846576    -3.810322    33.890732    20.064030    60.342747    2.758240    -17.864386    87.890129    18.079988    -16.650270    24.321857    14.937573    -15.408834    4.104164    -11.066727    15.475085    0.255713    -5.714563    1.509329    34.079178    0.000000    0.000000    0.000000    -11.616168    0.680325    -7.788836    5.810315    28.438679    -1.058685    3.650128    -22.750267    -15.146693    0.000000    0.000000    0.000000    
-3.012179    157.386536    -24.595554    0.322771    -2.415507    -33.096672    3.570579    -0.850628    2.177022    -4.343748    5.875322    0.938239    19.726854    1.706108    12.372858    -12.773525    0.920980    8.514336    0.643919    10.030776    -11.783798    -37.960796    5.809406    -40.656120    25.155518    -39.755569    -56.087120    -17.186613    -24.779177    -26.743626    -2.738814    10.835328    -3.734531    33.831184    19.970814    60.837189    2.468204    -18.211481    87.456039    18.236050    -16.650614    24.515162    14.945381    -15.394011    4.100529    -11.071589    15.472421    0.277458    -5.714464    1.505357    34.085365    0.000000    0.000000    0.000000    -11.613256    0.670510    -7.776066    5.800488    28.458513    -1.015703    3.644488    -22.738319    -15.170975    0.000000    0.000000    0.000000    
-3.002014    157.388168    -24.605476    0.319409    -2.414557    -33.127216    3.579017    -0.848809    2.189274    -4.337257    5.875334    0.942044    19.714489    1.673837    12.369104    -12.765670    0.952148    8.510856    0.631279    10.027315    -11.814789    -37.913357    5.851362    -40.677296    25.254761    -39.798832    -55.976189    -17.202383    -24.812290    -26.693689    -2.806140    10.823237    -3.646300    33.741592    19.904633    61.340061    2.118639    -18.593033    87.017044    18.209108    -16.697006    24.572479    14.954951    -15.386442    4.114289    -11.074114    15.468049    0.280280    -5.716632    1.504257    34.099983    0.000000    0.000000    0.000000    -11.614816    0.640368    -7.735375    5.813702    28.487858    -1.025671    3.635998    -22.731817    -15.192596    0.000000    0.000000    0.000000    
-2.983381    157.388824    -24.619829    0.319791    -2.405701    -33.161270    3.598068    -0.848306    2.208028    -4.346956    5.869756    0.948507    19.721939    1.641793    12.361564    -12.778252    0.985312    8.498173    0.630736    10.020300    -11.853206    -37.884136    5.868787    -40.691216    25.319107    -39.829716    -55.908310    -17.214949    -24.839348    -26.635586    -2.860608    10.809439    -3.568445    33.638119    19.857933    61.841499    1.825477    -19.028326    86.608025    18.337576    -16.810968    24.699017    14.961358    -15.391515    4.135543    -11.061621    15.474227    0.269596    -5.736036    1.496117    34.111210    0.000000    0.000000    0.000000    -11.615181    0.591063    -7.701933    5.811815    28.534433    -1.003413    3.642983    -22.725248    -15.224730    0.000000    0.000000    0.000000    
-2.961521    157.387680    -24.629534    0.330024    -2.398845    -33.199142    3.609055    -0.851006    2.226629    -4.348335    5.860752    0.954388    19.707397    1.605871    12.358357    -12.772208    1.025846    8.495693    0.613260    10.024643    -11.885319    -37.857658    5.857908    -40.708118    25.367485    -39.825932    -55.821205    -17.265530    -24.813902    -26.691427    -2.923959    10.794985    -3.482228    33.568592    19.777826    62.313988    1.565211    -19.366541    86.218849    18.376926    -16.882572    24.811815    14.958639    -15.400215    4.156832    -11.059694    15.477695    0.287112    -5.732863    1.492816    34.120178    0.000000    0.000000    0.000000    -11.630887    0.537305    -7.640700    5.834157    28.577183    -0.994882    3.637088    -22.721319    -15.262063    0.000000    0.000000    0.000000    
-2.937782    157.387634    -24.643078    0.339113    -2.391448    -33.242420    3.621735    -0.848980    2.248893    -4.354228    5.854201    0.961879    19.700617    1.561261    12.354690    -12.768445    1.069467    8.490140    0.605156    10.031999    -11.915771    -37.834339    5.825898    -40.730740    25.373884    -39.819031    -55.764572    -17.267212    -24.813652    -26.715137    -2.988276    10.758701    -3.401463    33.492474    19.720613    62.797188    1.303371    -19.741142    85.801918    18.517593    -16.966335    24.953598    14.955383    -15.407662    4.181739    -11.048370    15.479753    0.317812    -5.744526    1.499596    34.108841    0.000000    0.000000    0.000000    -11.641177    0.540698    -7.562160    5.866084    28.498121    -0.994581    3.602153    -22.732859    -15.299717    0.000000    0.000000    0.000000    
-2.914026    157.387085    -24.653316    0.343300    -2.394343    -33.291828    3.629602    -0.834093    2.273068    -4.355891    5.845988    0.969837    19.700264    1.544022    12.350682    -12.783537    1.073546    8.481375    0.602044    10.034863    -11.952415    -37.821838    5.795545    -40.743572    25.366705    -39.810265    -55.708241    -17.237272    -24.821012    -26.767200    -3.047961    10.717484    -3.322289    33.417770    19.624849    63.281673    1.077927    -20.028307    85.343521    18.363705    -17.040236    25.221495    14.952788    -15.398314    4.188266    -11.044593    15.475586    0.310116    -5.745766    1.491371    34.150925    0.000000    0.000000    0.000000    -11.656151    0.439042    -7.283030    5.987827    28.634359    -1.258144    3.631368    -22.721310    -15.322573    0.000000    0.000000    0.000000    
-2.887105    157.384872    -24.660099    0.354759    -2.395734    -33.346317    3.640582    -0.829556    2.296321    -4.369125    5.845377    0.978320    19.702692    1.528397    12.339355    -12.799943    1.073555    8.464212    0.598440    10.034457    -11.984509    -37.805824    5.769126    -40.747913    25.404709    -39.807804    -55.639797    -17.271536    -24.807678    -26.777552    -3.110994    10.672636    -3.246426    33.367619    19.549181    63.753361    0.837318    -20.326153    84.947945    18.444405    -17.110662    25.209028    14.944284    -15.391703    4.205936    -11.039783    15.475270    0.327982    -5.741844    1.484143    34.157169    0.000000    0.000000    0.000000    -11.677562    0.446613    -7.171149    6.032827    28.551125    -1.278506    3.578831    -22.727596    -15.357508    0.000000    0.000000    0.000000    
